# xmcd
#
# Track frame offsets: 
#        150
#        26455
#        46278
#        61697
#        76880
#        98244
#        117608
#        139903
#        161195
#        181361
#        201276
#
# Disc length: 3044 seconds
#
# Revision: 0
# Processed by: cddbd v1.5.1PL2 Copyright (c) Steve Scherf et al.
# Submitted via: ExactAudioCopy v0.95b3
#
DISCID=950be20b
DTITLE=Funk Shui - True
DYEAR=2005
DGENRE=Funk
TTITLE0=On My Mind
TTITLE1=True
TTITLE2=Time For Two
TTITLE3=Donde Esta
TTITLE4=Kickstand
TTITLE5=Peach Cobbler
TTITLE6=Shasta McNasta
TTITLE7=Trepidation
TTITLE8=Magic Dust
TTITLE9=Satisfied
TTITLE10=April
EXTD=
EXTT0=
EXTT1=
EXTT2=
EXTT3=
EXTT4=
EXTT5=
EXTT6=
EXTT7=
EXTT8=
EXTT9=
EXTT10=
PLAYORDER=
